<?xml version="1.0" encoding="utf-8"?>
<!-- Generator: Adobe Illustrator 25.2.3, SVG Export Plug-In . SVG Version: 6.00 Build 0)  -->
<svg version="1.1" id="Layer_1" xmlns="http://www.w3.org/2000/svg" xmlns:xlink="http://www.w3.org/1999/xlink" x="0px" y="0px"
	 viewBox="0 0 36 36" style="enable-background:new 0 0 36 36;" xml:space="preserve">
<style type="text/css">
	.st0{fill:url(#SVGID_1_);}
	.st1{opacity:5.000000e-02;enable-background:new    ;}
	.st2{opacity:7.000000e-02;enable-background:new    ;}
	.st3{fill:#FFFFFF;}
</style>
<linearGradient id="SVGID_1_" gradientUnits="userSpaceOnUse" x1="0.228" y1="39.104" x2="36.077" y2="0.568" gradientTransform="matrix(1 0 0 -1 0 38)">
	<stop  offset="0" style="stop-color:#0D61A9"/>
	<stop  offset="1" style="stop-color:#16528C"/>
</linearGradient>
<path class="st0" d="M36,34c0,1.1-0.9,2-2,2H2c-1.1,0-2-0.9-2-2V2c0-1.1,0.9-2,2-2h32c1.1,0,2,0.9,2,2V34z"/>
<path class="st1" d="M19,32V21h-4v-6h4v-2.1c0-5,2.7-7.8,7.5-7.8c2,0,3.1,0.1,3.6,0.2L31,5.4l0,0.9V11h-3.6c-1.1,0-1.4,1.4-1.4,2.5
	V15h4.7l-0.9,6H26v11H19z"/>
<path class="st2" d="M19.5,31.5v-11h-4v-5h4v-2.6c0-4.8,2.4-7.3,7-7.3c2,0,3,0.1,3.5,0.2l0.4,0.1l0,0.4v4.3h-3.1
	c-1.6,0-1.9,1.9-1.9,3v2h4.6l-0.8,5h-3.9v11H19.5z"/>
<path class="st3" d="M27.4,10H30V6.2C29.5,6.2,28.5,6,26.5,6C22.4,6,20,8.1,20,12.9V16h-4v4h4v11h5V20h3.9l0.6-4H25v-2.5
	C25,11.7,25.6,10,27.4,10z"/>
</svg>
