<?xml version="1.0" encoding="utf-8"?><!DOCTYPE svg PUBLIC "-//W3C//DTD SVG 1.1//EN" "http://www.w3.org/Graphics/SVG/1.1/DTD/svg11.dtd"><svg version="1.1" xmlns="http://www.w3.org/2000/svg" xmlns:xlink="http://www.w3.org/1999/xlink" width="20" height="20" viewBox="0 0 20 20" data-tags="envelope"><g fill="#444" transform="scale(0.01953125 0.01953125)"><path d="M921.6 102.4c56.554 0 102.4 45.846 102.4 102.4v0 614.4c0 56.554-45.846 102.4-102.4 102.4v0h-819.2c-56.554 0-102.4-45.846-102.4-102.4v0-614.4c0-56.32 46.080-102.4 102.4-102.4h819.2zM697.856 568.32l326.144 250.88v-102.4l-262.144-199.68 262.144-209.92v-102.4l-512 409.6-512-409.6v102.4l262.144 209.92-262.144 199.68v102.4l326.144-250.88 185.856 148.48 185.856-148.48z" /></g></svg>