<?xml version="1.0" encoding="utf-8"?><!DOCTYPE svg PUBLIC "-//W3C//DTD SVG 1.1//EN" "http://www.w3.org/Graphics/SVG/1.1/DTD/svg11.dtd"><svg version="1.1" xmlns="http://www.w3.org/2000/svg" xmlns:xlink="http://www.w3.org/1999/xlink" width="20" height="20" viewBox="0 0 20 20" data-tags="phone"><g fill="#444" transform="scale(0.01953125 0.01953125)"><path d="M1024 939.52v33.28c0 28.277-22.923 51.2-51.2 51.2v0h-102.4c-480.709 0-870.4-389.691-870.4-870.4v0-102.4c0-28.277 22.923-51.2 51.2-51.2v0h204.8c28.277 0 51.2 22.923 51.2 51.2v0 204.8c0 28.672-15.872 67.072-35.84 87.040l-109.568 109.568c77.824 184.32 225.28 331.776 409.6 409.6l108.544-108.544c20.48-20.48 58.88-36.352 87.040-36.352h205.824c28.056 0.29 50.688 23.1 50.688 51.197 0 0.001-0 0.002-0 0.003l0-0v171.52z" /></g></svg>