<?xml version="1.0" encoding="utf-8"?>
<!-- Generator: Adobe Illustrator 25.2.3, SVG Export Plug-In . SVG Version: 6.00 Build 0)  -->
<svg version="1.1" id="Layer_1" xmlns="http://www.w3.org/2000/svg" xmlns:xlink="http://www.w3.org/1999/xlink" x="0px" y="0px"
	 viewBox="0 0 44 32" style="enable-background:new 0 0 44 32;" xml:space="preserve">
<style type="text/css">
	.st0{fill:url(#SVGID_1_);}
	.st1{opacity:5.000000e-02;enable-background:new    ;}
	.st2{opacity:7.000000e-02;enable-background:new    ;}
	.st3{fill:#FFFFFF;}
</style>
<linearGradient id="SVGID_1_" gradientUnits="userSpaceOnUse" x1="7.816" y1="32.1357" x2="39.246" y2="0.7057" gradientTransform="matrix(1 0 0 -1 0 34.0133)">
	<stop  offset="0" style="stop-color:#F44F5A"/>
	<stop  offset="0.443" style="stop-color:#EE3D4A"/>
	<stop  offset="1" style="stop-color:#E52030"/>
</linearGradient>
<path class="st0" d="M43,26.6c-0.4,2.2-2.3,3.9-4.6,4.3c-3.6,0.5-9.7,1.2-16.5,1.2c-6.7,0-12.7-0.6-16.5-1.2c-2.3-0.3-4.2-2-4.6-4.3
	C0.4,24.1,0,20.5,0,16S0.4,7.9,0.9,5.4c0.4-2.2,2.3-3.9,4.6-4.3C9.1,0.6,15.1,0,21.9,0s12.7,0.6,16.5,1.2c2.3,0.3,4.2,2,4.6,4.3
	c0.4,2.5,1,6.1,1,10.6C43.9,20.5,43.5,24.1,43,26.6z"/>
<path class="st1" d="M30.4,14.4L18.9,6.8c-0.6-0.4-1.3-0.4-1.9-0.1c-0.6,0.3-1,1-1,1.7v15.2c0,0.7,0.4,1.3,1,1.7
	c0.3,0.1,0.6,0.2,0.9,0.2c0.4,0,0.7-0.1,1-0.3l11.4-7.6c0.5-0.3,0.8-0.9,0.8-1.6C31.2,15.4,30.9,14.8,30.4,14.4z"/>
<path class="st2" d="M18.7,7.2l10.8,7.2c0.7,0.5,1.2,0.9,1.2,1.5c0,0.6-0.2,1-0.7,1.3c-0.4,0.3-11,7.4-11,7.4
	c-0.9,0.6-2.4,0.5-2.4-1.5V8.8C16.5,6.7,18.1,6.8,18.7,7.2z"/>
<path class="st3" d="M17,23.6V8.4c0-0.7,0.8-1.2,1.4-0.8l11.4,7.6c0.6,0.4,0.6,1.2,0,1.5l-11.4,7.6C17.8,24.8,17,24.3,17,23.6z"/>
</svg>
